<?xml version="1.0" encoding="UTF-8"?>
<svg id="Layer_2" data-name="Layer 2" xmlns="http://www.w3.org/2000/svg" viewBox="0 0 444.37 447.2">
  <defs>
    <style>
      .cls-1 {
        stroke-width: 16px;
      }

      .cls-1, .cls-2 {
        fill: #db9600;
        stroke: #db9600;
        stroke-miterlimit: 10;
      }

      .cls-2 {
        stroke-width: 6px;
      }
    </style>
  </defs>
  <g id="Layer_1-2" data-name="Layer 1">
    <g>
      <path class="cls-1" d="m223.75,8c109.94-.26,212.02,92.37,212.61,212.65.6,121.65-97.08,216.18-209.49,218.5-120.19,2.49-215.54-95.98-218.77-207.27C4.31,101.38,108.39,7.94,223.75,8Zm-12.06,20.4C92.81,36.56,29.93,138.79,31.19,208.61h27.79v24.25h-28.61c2.11,107.84,90.45,181.64,181.04,186.17v-44.89h23.72v44.73c111.98-8.17,179.44-104.47,179.72-186.37h-26.9v-23.8h26.11c-1-80.91-72.21-174.52-179-179.81v97.33h-23.37V28.4Z"/>
      <path class="cls-2" d="m80.69,155.04c3.8-6.45,7.32-12.44,10.93-18.56,38.97,26.65,77.76,52.88,116.73,79.44,3.79,2.58,7.87,4.99,8.29,10.25,10.92-1.08,18.87,5.93,17.99,15.72-.49,5.45-3.57,9.22-8.32,11.53-4.98,2.42-10.09,2.26-14.31-1.44-2.52-2.21-4.66-5.14-6.12-8.16-1.29-2.67-3.17-4.13-5.47-5.7-39.84-28.05-79.87-54.87-119.71-83.07Z"/>
    </g>
  </g>
</svg>